<svg width="120" height="121" viewBox="0 0 120 121" fill="none" xmlns="http://www.w3.org/2000/svg">
<g clip-path="url(#clip0_481_498)">
<path d="M84.6493 71.1723C78.9847 71.2762 72.5559 71.8876 66.6146 72.6335C67.2795 70.2445 67.9414 67.886 67.9414 67.886C67.9414 67.886 68.6215 69.3488 70.5398 69.2005C73.2636 68.9896 76.5789 66.3377 78.1838 61.4786C79.8896 56.3168 79.7368 50.4551 76.2564 49.9629C73.4439 49.5655 72.1019 52.0508 71.9078 52.546C71.9078 52.546 72.5055 50.2885 70.7186 50.6828C69.0067 51.0603 68.6934 51.8231 68.27 53.1865C68.1951 53.4265 66.7537 58.7899 65.2436 64.4423C65.2206 64.479 65.2023 64.5218 65.1885 64.5692C64.8156 65.847 64.0773 66.275 63.5439 66.3086C61.8182 66.4202 65.5279 55.0344 65.8091 54.1708C66.1805 53.0321 66.4022 52.1685 65.1442 51.6931C64.2959 51.3722 63.1327 51.4883 62.7919 52.3993C62.6482 52.7814 62.5442 53.0627 62.5442 53.0627C62.5442 53.0627 61.5752 51.6228 59.4322 51.8185C57.2877 52.0141 54.5808 54.6233 52.7894 59.2011C50.998 63.779 50.22 70.3454 54.4692 70.9996C56.6259 71.3312 58.4356 70.0978 59.3833 68.0664C59.3833 68.0664 59.2182 69.4267 60.6382 70.0932C61.1961 70.3561 62.584 70.2537 63.8908 69.5154C63.5469 70.8054 63.2229 72.0282 62.934 73.1181C53.76 74.3867 46.5394 75.8036 46.5394 75.8036C46.5409 75.7975 51.5681 58.7976 52.7007 55.0558C53.6484 51.9239 51.8616 52.6057 50.541 52.9893C49.1332 53.3974 48.4668 54.5835 47.7622 56.7372C44.6822 66.1435 42.258 69.0721 40.5003 68.4409C38.8877 67.8616 43.9593 57.8729 42.7426 56.5538C41.6879 55.4104 39.5144 55.4716 39.1002 56.1457C38.686 56.8197 39.3019 57.4357 39.0375 58.3895C38.7731 59.3433 36.7417 64.5065 36.5277 65.6636C36.3137 66.8191 34.5514 73.2281 39.2148 72.9515C41.9707 72.7879 43.8584 70.703 44.0586 70.1237C43.1981 72.6137 41.9676 76.6321 41.9676 76.6321C41.9676 76.6321 36.326 78.0429 31.8291 82.7491C28.2586 86.4847 25.7335 94.5323 31.0664 95.8147C39.3554 97.8078 43.2745 85.155 45.2845 80.3968C52.0053 78.9004 57.1303 77.9068 61.8702 77.167C61.7999 77.4437 61.7525 77.6317 61.7357 77.7097C61.3046 79.6906 61.4009 80.4839 62.9478 80.2928C64.6154 80.0865 64.8248 79.2305 65.3704 77.1594C65.4071 77.0172 65.4545 76.8415 65.5095 76.6382C71.1267 75.8801 76.6416 75.4047 84.2305 74.7719C86.589 74.5747 86.563 74.1804 86.7938 72.7726C87.0552 71.1753 85.2103 71.1616 84.6509 71.1723H84.6493ZM70.1806 60.2527C71.3147 56.5461 72.3572 55.0619 73.3369 54.6431C75.674 53.642 76.1173 56.5752 74.3137 61.0277C72.2257 66.1802 69.7878 66.0625 68.8539 65.0461C68.8539 65.0476 68.9838 64.1672 70.1821 60.2542L70.1806 60.2527ZM59.744 62.4904C58.7413 64.91 57.8028 66.6128 56.5113 66.622C54.6603 66.6357 54.7076 63.8523 56.0252 60.3505C57.1334 57.4067 59.154 55.5526 60.2454 55.3417C61.3352 55.1323 62.6039 55.5877 59.744 62.4889V62.4904ZM35.253 90.6423C30.8463 94.5751 31.9575 89.1887 33.5961 86.8623C36.7066 82.4449 40.5477 81.3276 40.5477 81.3276C38.5958 87.0381 36.1563 89.8367 35.253 90.6423Z" fill="#742384"/>
<path d="M90.5099 56.928C92.1744 55.0006 92.9341 50.8935 90.1415 49.3818C86.7635 47.5537 82.3523 50.3448 80.5319 56.3594C78.9132 61.7076 78.3079 68.2847 83.7998 68.0417C86.5052 67.9225 88.8392 65.9752 89.6845 64.5292C90.0941 63.8276 90.2577 62.7225 90.1858 62.2319C89.9856 60.8547 89.1434 60.6545 87.7143 62.4627C87.3612 62.8616 84.5426 65.3684 83.1639 63.8796C82.1674 62.8035 83.005 60.6912 83.0447 60.6896C84.8483 60.5582 88.0047 59.8291 90.5099 56.928ZM86.4685 52.2585C87.9848 50.8415 89.4354 52.5366 87.6822 54.9761C85.9122 57.437 83.8395 57.3743 83.8227 57.4523C84.0352 56.4893 84.8147 53.8053 86.4701 52.2585H86.4685Z" fill="#742384"/>
<path d="M61.6774 23.0123C55.7377 23.2859 50.8878 28.0563 50.524 33.9915C50.2779 38.0084 52.0571 41.6217 54.9352 43.9114C55.2317 44.1468 55.4045 44.5029 55.4045 44.882V47.4697C55.4045 47.6685 55.516 47.8519 55.6918 47.9436L55.7637 47.9818C55.9333 48.0704 56.1366 48.0552 56.291 47.9436L58.5119 46.3433C58.8023 46.1338 59.1691 46.0605 59.5176 46.143C60.3889 46.3509 61.2968 46.4609 62.2307 46.4609C68.71 46.4609 73.9619 41.209 73.9619 34.7297C73.9619 28.2505 68.4074 22.7035 61.6774 23.0123ZM63.0103 38.2025C62.7198 38.6519 62.2949 39.0049 61.734 39.2587C61.1745 39.5139 60.5096 39.6408 59.7423 39.6408C58.8222 39.6408 58.0625 39.4665 57.4649 39.1196C57.04 38.8689 56.696 38.5357 56.4301 38.1169C56.1657 37.6996 56.0327 37.293 56.0327 36.8987C56.0327 36.6694 56.1122 36.4738 56.2711 36.3102C56.4301 36.1467 56.6334 36.0656 56.8795 36.0656C57.0782 36.0656 57.2478 36.1298 57.3854 36.2567C57.523 36.3836 57.6407 36.5731 57.7385 36.8223C57.8577 37.1188 57.9861 37.3679 58.1237 37.5666C58.2612 37.7653 58.4553 37.9304 58.706 38.0603C58.9567 38.1903 59.2853 38.2545 59.6919 38.2545C60.2513 38.2545 60.7068 38.1245 61.0568 37.8632C61.4069 37.6018 61.5826 37.2762 61.5826 36.8864C61.5826 36.5762 61.4879 36.3255 61.2999 36.1329C61.1103 35.9403 60.8673 35.792 60.5677 35.6912C60.2681 35.5888 59.8692 35.4818 59.3679 35.3671C58.6968 35.2097 58.1359 35.0263 57.685 34.8169C57.2325 34.6075 56.8749 34.3201 56.6089 33.9579C56.3445 33.5956 56.2115 33.1447 56.2115 32.6051C56.2115 32.0656 56.3521 31.6361 56.6318 31.2371C56.9116 30.8382 57.3166 30.5325 57.847 30.317C58.3774 30.103 59.001 29.996 59.7179 29.996C60.2911 29.996 60.7863 30.0663 61.2036 30.2085C61.6209 30.3506 61.9678 30.5386 62.2445 30.774C62.5196 31.0094 62.7214 31.257 62.8482 31.5153C62.9751 31.7736 63.0393 32.0258 63.0393 32.2719C63.0393 32.4966 62.9598 32.6999 62.8009 32.8803C62.6419 33.0606 62.4432 33.1508 62.2063 33.1508C61.9908 33.1508 61.8257 33.0973 61.7126 32.9888C61.5995 32.8803 61.4787 32.703 61.3473 32.4569C61.1776 32.1053 60.9743 31.8302 60.7359 31.633C60.4974 31.4358 60.1168 31.3365 59.591 31.3365C59.1034 31.3365 58.7091 31.4435 58.411 31.6575C58.1114 31.8715 57.9616 32.1298 57.9616 32.4309C57.9616 32.6174 58.0121 32.7794 58.1145 32.9139C58.2169 33.0499 58.356 33.1661 58.5348 33.2639C58.7137 33.3617 58.894 33.4382 59.0759 33.4932C59.2578 33.5482 59.5589 33.6292 59.9793 33.7347C60.5051 33.8585 60.9819 33.993 61.4084 34.1413C61.8348 34.2895 62.1971 34.4699 62.4967 34.6824C62.7963 34.8948 63.0286 35.1623 63.1967 35.4879C63.3649 35.8119 63.4489 36.2109 63.4489 36.6816C63.4489 37.2456 63.3037 37.7531 63.0133 38.2025H63.0103ZM68.6947 30.3995C68.6749 30.5432 68.5877 30.8 68.4364 31.1668L65.3427 38.9255C65.2403 39.1807 65.1532 39.3825 65.0829 39.5292C65.0126 39.676 64.9209 39.7845 64.8093 39.8563C64.6977 39.9282 64.5464 39.9511 64.3553 39.9236C63.8815 39.8563 63.6736 39.6179 63.7317 39.2098C63.747 39.1028 63.8311 38.8429 63.9854 38.4287L67.073 30.6685C67.2365 30.2558 67.3756 29.9761 67.4903 29.8324C67.6064 29.6872 67.7975 29.6337 68.0681 29.6735C68.3004 29.7071 68.47 29.7881 68.577 29.9165C68.684 30.0449 68.7238 30.2069 68.6963 30.4026L68.6947 30.3995Z" fill="#10CBB4"/>
</g>
<defs>
<clipPath id="clip0_481_498">
<rect width="120" height="120" fill="white" transform="translate(0 0.5)"/>
</clipPath>
</defs>
</svg>
